<svg xmlns="http://www.w3.org/2000/svg" width="40" height="31" fill="none"><path fill="#E2F2FC" fill-rule="evenodd" d="M38.195 6.732c3.716 6.437 1.51 14.668-4.927 18.385a14 14 0 0 1-.569.31l.014.01s-2.497 1.442-10.717 3.228c-6.12 1.329-10.701 1.77-12.643 1.909-.266.019-.364-.32-.133-.453l9.318-5.38a.263.263 0 0 0 .02-.438q-.249-.185-.492-.38a.26.26 0 0 0-.235-.049L.328 28.881c-.256.073-.44-.245-.249-.43l13.088-12.655a.26.26 0 0 0 .075-.227q-.048-.309-.083-.618a.262.262 0 0 0-.39-.2l-9.317 5.38c-.231.133-.476-.122-.326-.343 1.09-1.612 3.764-5.36 7.975-9.994 5.656-6.226 8.153-7.668 8.153-7.668l.002.017q.27-.174.553-.338C26.247-1.91 34.48.295 38.195 6.732m-8.452 12.28A6.409 6.409 0 1 0 23.335 7.91a6.409 6.409 0 0 0 6.408 11.1Z" clip-rule="evenodd"/></svg>